<svg xmlns="http://www.w3.org/2000/svg" xml:space="preserve" viewBox="0 0 128 128"><rect width="28.28" height="2" x="93.21" y="51.05" style="fill:#504f4f" transform="matrix(0.1065 -0.9943 0.9943 0.1065 44.1743 153.2492)"/><circle cx="41.84" cy="64" r="21.84" style="fill:#504f4f"/><radialGradient id="a" cx="88" cy="75.167" r="21.412" gradientTransform="matrix(-1 0 0 -1 129.8368 128)" gradientUnits="userSpaceOnUse"><stop offset="0" style="stop-color:#eee"/><stop offset="1" style="stop-color:#bdbdbd"/></radialGradient><circle cx="41.84" cy="64" r="10" style="fill:url(#a)"/><circle cx="41.84" cy="64" r="18" style="opacity:.2;fill:none;stroke:#eee;stroke-width:.9412;stroke-miterlimit:10"/><circle cx="41.84" cy="64" r="14.62" style="opacity:.2;fill:none;stroke:#eee;stroke-miterlimit:10"/><circle cx="89.84" cy="64" r="17.15" style="fill:#504f4f"/><radialGradient id="b" cx="39.667" cy="74.667" r="21.006" gradientTransform="matrix(-1 0 0 -1 129.8368 128)" gradientUnits="userSpaceOnUse"><stop offset="0" style="stop-color:#eee"/><stop offset="1" style="stop-color:#bdbdbd"/></radialGradient><circle cx="89.84" cy="64" r="10" style="fill:url(#b)"/><circle cx="89.84" cy="64" r="13.53" style="opacity:.2;fill:none;stroke:#eee;stroke-miterlimit:10"/><path d="M4,32v64c0,2.21,1.79,4,4,4h112c2.21,0,4-1.79,4-4V32c0-2.21-1.79-4-4-4H8C5.79,28,4,29.79,4,32z M40,78c0,1.1-0.9,2-2,2H20c-2.21,0-8-7.16-8-16s5.79-16,8-16h18c1.1,0,2,0.9,2,2V78z M108,80H90c-1.1,0-2-0.9-2-2V50	c0-1.1,0.9-2,2-2h18c2.21,0,8,7.16,8,16S110.21,80,108,80z" style="fill:#595858"/><rect width="104" height="2" x="11.85" y="38.15" style="fill:#787676"/><rect width="104" height="2" x="11.85" y="42.15" style="fill:#787676"/><rect width="104" height="2" x="12" y="88" style="fill:#787676"/><rect width="104" height="2" x="12" y="92" style="fill:#787676"/><rect width="104" height="2" x="12" y="84" style="fill:#787676"/><g style="opacity:.2"><path d="M82,48c1.1,0,2,0.9,2,2v28c0,1.1-0.9,2-2,2H46c-1.1,0-2-0.9-2-2V50c0-1.1,0.9-2,2-2H82 M82,46H46 c-2.21,0-4,1.79-4,4v28c0,2.21,1.79,4,4,4h36c2.21,0,4-1.79,4-4V50C86,47.79,84.21,46,82,46z" style="fill:#424242"/></g><radialGradient id="c" cx="63.5" cy="79.5" r="21.844" gradientTransform="matrix(1 0 0 -1 0 128)" gradientUnits="userSpaceOnUse"><stop offset="0" style="stop-color:#ef5350"/><stop offset="1" style="stop-color:#e53935"/></radialGradient><path d="M84,50c0-1.1-0.9-2-2-2H46c-1.1,0-2,0.9-2,2v6h40V50z" style="fill:url(#c)"/><radialGradient id="d" cx="63.333" cy="72.833" r="28.404" gradientTransform="matrix(1 0 0 -1 0 128)" gradientUnits="userSpaceOnUse"><stop offset="0" style="stop-color:#fafafa"/><stop offset="1" style="stop-color:#eee"/></radialGradient><path d="M44,56v22c0,1.1,0.9,2,2,2h36c1.1,0,2-0.9,2-2V56H44z" style="fill:url(#d)"/><path d="M77 66H51c-.55 0-1-.45-1-1v-2c0-.55.45-1 1-1h26c.55 0 1 .45 1 1v2C78 65.55 77.55 66 77 66zM77 74H51c-.55 0-1-.45-1-1v-2c0-.55.45-1 1-1h26c.55 0 1 .45 1 1v2C78 73.55 77.55 74 77 74z" style="fill:#bdbdbd"/><path d="M64,28H7.89C5.74,28,4,29.74,4,31.89v12.26h4.73l0.06-8h110.54l-0.06,8H124V31.88	c0-2.14-1.74-3.88-3.88-3.88H64z" style="fill:#424242"/></svg>