<svg xmlns="http://www.w3.org/2000/svg" xml:space="preserve" viewBox="0 0 128 128"><path d="M50.1 60.55c-.09.86-.15 1.57-.16 2.07-.08 3.96-.8 10.94-.74 11.25.11.63 1.3 1.84 1.62 5.27.1 1.08-.06 2.32-.24 2.48-.49.44-1.09-.07-1.36-1.53-.16-.88-.66-1.2-.86-.67-.3.81-.17 1.44.19 2.92.32 1.3.72 1.9.56 2.65-.09.4-.74 1.1-1.06.39-.23-.5-.36-.7-.36-.7s-.32.37-1.03-.21c-1.63-1.34-3.57-3.04-3.66-4.8-.13-2.66.79-4.76.86-5.73s-.6-5.55-.35-9.4c.07-1.1.64-3.96.78-5.86.05-.64.13-1.33.24-2.08 2.53 2.05 3.9 2.91 5.58 3.92L50.1 60.55 50.1 60.55zM77.38 46.76c0 0-2.01-2.11-4.6-.95-.63.28 3.2 12.39 3.71 16.5.48 3.93 1.91 10.8 1.89 11.11-.04.64-1.11 1.97-1.07 5.41.01 1.08.3 2.3.5 2.45.54.39 1.08-.18 1.2-1.66.07-.89.53-1.26.78-.75.38.77.32 1.41.11 2.92-.18 1.33-.52 1.96-.28 2.7.13.39.85 1.02 1.1.28C80.9 84.25 81 84.04 81 84.04s.36.34 1.01-.31c1.48-1.5 3.24-3.39 3.14-5.15-.14-2.66-1.27-4.65-1.44-5.61-.17-.96.03-5.58-.61-9.38-.18-1.09-1.04-3.87-1.38-5.75-1.08-6.02-4.33-11.06-4.33-11.06L77.38 46.76 77.38 46.76z" style="fill:#f9ddbd"/><path d="m44.33 57.51-.16 2.27c0 0 1.42 1.68 3.32 2.71 1.23.67 1.48 2.52 1.43 3.44s-.59 7.07-.43 7.66 1.3 1.45 1.57 2.21-.81-2.58-.81-2.58.59-6.74.7-8.47.22-5.02.22-5.02l-5.82-2.21L44.33 57.51 44.33 57.51zM77.18 66.67c0 0-.13-3.37.34-4.45.53-1.21 1.84-1.87 2.61-2.28s1.83-.88 1.83-.88l-.59-2.86-5.52 3.67c0 0 .53 2.03.63 2.43s.42 3.53.69 4.36l0 0L77.18 66.67z" style="fill:#edbd82"/><path d="M47.45 84.27c0 0-2.21-2.81-1.94-3.62.09-.27.58-.18.72.25C46.53 81.88 47.45 84.28 47.45 84.27L47.45 84.27 47.45 84.27zM45.77 83.71c0 0-2.43-2.63-1.84-2.93.25-.12.57.8.88 1.37S45.77 83.71 45.77 83.71zM81.18 83.58c0 0 1.91-3.02 1.56-3.8-.12-.26-.6-.12-.69.32C81.85 81.11 81.18 83.58 81.18 83.58zM82.79 82.85c0 0 2.15-2.87 1.53-3.1-.26-.1-.48.85-.74 1.45S82.79 82.85 82.79 82.85zM49.8 81.55c0-.09-.29-1.47-.33-1.83s-.23-1.28-.77-1.16c-.65.14-.99.7-.86 1.49.28 1.66.86 3.23 1.02 3.5s-.5-2.13-.55-2.95c-.05-.88.03-1.35.3-1.41.43-.09.52.98.8 1.74.23.62.38.61.38.61h.01L49.8 81.55zM78.75 80.77c0 0 .13-.32.19-.75s.18-1.35.5-1.38.56.53.6 1.01-.16 2.51-.4 3.45-.03 1.53.14 1.66c.05-.34.11-1.1.24-1.68.19-.84.55-2.74.4-3.69s-.53-1.48-1.22-1.27c-.56.17-.56 1.19-.56 1.59s.12 1.06.12 1.06H78.75z" style="fill:#d89852"/><path d="M74.89,40.31c0,0,3.05-6.43,2.95-18.59S71.03,4.43,63.61,4.03c-7.42-0.4-16.62,4.7-16.16,19.8 c0.25,8.44,1.98,14.38,3.42,17.91c5.06,0.09,12.24,0.09,12.24,0.09S74.89,40.31,74.89,40.31z" style="fill:#312d2d"/><path d="M55,38.95l3.85-1.59c0,0,0.07-0.57,0.05-1.23c-0.04-1.53-0.04-3.04-0.04-3.04l8.32,0.04 c0,0-0.01,0.92,0,2.61c0,0.44,0.06,1.11,0.05,1.52l3.84,0.88l-8.37,4.09L55,38.96l0,0L55,38.95z" style="fill:#edbd82"/><path d="M53.67 110.08c0 0 .32 2.64-.46 4.58-.71 1.74-2.66 3.69-3.02 6.31-.15 1.11 1.35 2.06 1.79 2.3 2.7 1.51 6.04.52 6.95-1.91.54-1.43.72-2.38 1.15-3.14s1.05-1.67 1.05-2.53.02-6 .02-6l-7.48.38 0 0L53.67 110.08zM74.71 109.82c0 0-.32 2.64.46 4.58.71 1.74 2.66 3.69 3.02 6.31.15 1.11-1.35 2.06-1.79 2.3-2.7 1.51-6.04.52-6.95-1.91-.54-1.43-.72-2.38-1.15-3.14s-1.05-1.67-1.05-2.53-.02-6-.02-6l7.48.38 0 0V109.82z" style="fill:#359"/><path d="M52.02,69.37c0,0-0.47,6.5-0.18,21.72c0.19,10.08,0.79,19.68,0.88,20.06s2.1,0.88,4.11,0.86 c2.67-0.02,4.63-0.53,4.77-1.04s1.14-6.87,1.23-13.26c0.04-2.61,0.06-4.87,0.11-6.93c0.1-4.05,0.34-6.84,1.17-6.8 c0.67,0.03,0.79,3.16,0.92,6.43c0.12,2.85,0.29,5.82,0.29,6.95c0,2.44,1.17,12.82,1.19,13.19s2.24,1.3,4.65,1.2 s4.37-0.52,4.41-0.91s0.6-11.57,0.6-19.7s-0.48-22.39-0.48-22.39l-14.09-3.9L52,69.36h0.02V69.37z" style="fill:#7c7c7c"/><path d="M63.49,62.63L52,69.9l-0.12,2.82c0,0,6.56,2.49,11.84,2.29c7.86-0.3,12.09-2.62,12.09-2.62 l-0.09-3.17L63.49,62.63L63.49,62.63L63.49,62.63z" style="fill:#686868"/><path d="M74.43,39.11c-2.12-1.31-7.18-2.01-7.18-2.01s-0.08,3.07-4.04,3.19c-3.53,0.1-4.43-3.06-4.43-3.06 s-4.27,0.73-7.39,2.23c-2.6,1.26-3.51,3.28-4.76,6.97S42.6,56,42.87,56.46c0.38,0.64,1.2,1.26,2.83,2.51s3.27,1.87,3.27,1.87 l1.88-1.13l1.13,2.13c0,0,0.06,1.84,0,2.65c-0.06,0.81-0.41,5.3,0.09,5.61s5.5,2.91,12.01,2.66s11.36-2.34,11.63-3.19 c0.19-0.6-0.06-4.64-0.09-5.62c-0.06-1.88-0.19-3.12-0.19-3.12l1.13-2.94l1.81,1.5c0,0,1.28-0.64,2.97-1.89s2.53-1.99,2.53-2.55 s-3.35-6.71-5.09-9.48C77.09,42.78,76.68,40.5,74.43,39.11z" style="fill:#583ee2"/><path d="M75.43 60.84c0 0-.26-4.04-.29-5.65-.04-1.61-.7-5.71.33-6.07 1.21-.43 1.62 3.21 1.84 4.86.22 1.65 1.07 5.42 1.07 5.42s-.74.44-1.49.8C76.22 60.53 75.43 60.84 75.43 60.84zM48.97 60.84c0 0 .6-3.39.82-5.52s.48-5.12.81-5.68 1.18-.52 1.32.35 0 6.68 0 7.85S52 62.01 52 62.01s-.62-.24-1.41-.51C49.57 61.16 48.97 60.84 48.97 60.84z" style="fill:#4b0fce"/><path d="M65.61,10.76c-0.2,0-2.44,2.76-6.48,4.82c-4.58,2.33-6.88,2.67-6.88,2.67s-0.44,4.33,0.34,8.99 c0.69,4.14,4.41,8.73,10.46,8.92c6.5,0.21,9.99-5.55,10.39-9.59s-0.3-8.93-0.3-8.93s-2.67-1.47-4.51-3.38 C66.8,12.35,65.62,10.77,65.61,10.76L65.61,10.76L65.61,10.76z" style="fill:#f9ddbd"/><path d="M63.04,26.56c-1.09,0.02-1.5-0.35-1.88,0.04c-0.35,0.36-0.04,0.87,0.55,1.33 c0.8,0.62,2.03,0.6,2.67,0.03s0.91-1.05,0.5-1.4S64.15,26.54,63.04,26.56z" style="fill:#dba689"/><path d="M54.25 19.8c.28.46 1.24-.26 2.77-.31 1.25-.04 2.34.85 2.59.04.31-.96-.72-1.37-2.57-1.29S53.87 19.17 54.25 19.8L54.25 19.8 54.25 19.8zM66.26 19.75c.63.17 1.11-.28 2.4-.2 1.2.08 2.38.61 2.72.22s-.55-1.33-2.53-1.53c-1.79-.17-2.88.31-3.01.7S65.99 19.67 66.26 19.75L66.26 19.75 66.26 19.75z" style="fill:#312d2d"/><path d="M57 21.11c-1.46-.02-2.03 1.24-1.94 2.14s.76 1.74 2.05 1.72 1.9-.83 1.9-1.9S58.36 21.13 57 21.11zM68.7 21.07c-1.09-.12-2.09.65-2.05 1.96.05 1.46 1.33 1.92 2.03 1.92 1 0 1.81-.74 1.83-1.81C70.53 21.94 69.92 21.2 68.7 21.07z" style="fill:#3f4040"/><path d="M63.16,29.97c-1.58,0-3.09-0.59-3.37,0.03c-0.42,0.92,1.15,1.97,3.43,1.97 c2.92,0,3.88-1.47,3.51-1.99s-1.74,0-3.57,0L63.16,29.97z" style="fill:#444445"/></svg>